<svg width="47" height="46" viewBox="0 0 47 46" fill="none" xmlns="http://www.w3.org/2000/svg">
<rect x="3.5" y="3" width="40" height="40" rx="20" fill="#F4EBFF"/>
<rect x="3.5" y="3" width="40" height="40" rx="20" stroke="#F9F5FF" stroke-width="6"/>
<path d="M28.5 15.5C27.837 15.5 27.2011 15.7634 26.7322 16.2322C26.2634 16.7011 26 17.337 26 18V28C26 28.663 26.2634 29.2989 26.7322 29.7678C27.2011 30.2366 27.837 30.5 28.5 30.5C29.163 30.5 29.7989 30.2366 30.2678 29.7678C30.7366 29.2989 31 28.663 31 28C31 27.337 30.7366 26.7011 30.2678 26.2322C29.7989 25.7634 29.163 25.5 28.5 25.5H18.5C17.837 25.5 17.2011 25.7634 16.7322 26.2322C16.2634 26.7011 16 27.337 16 28C16 28.663 16.2634 29.2989 16.7322 29.7678C17.2011 30.2366 17.837 30.5 18.5 30.5C19.163 30.5 19.7989 30.2366 20.2678 29.7678C20.7366 29.2989 21 28.663 21 28V18C21 17.337 20.7366 16.7011 20.2678 16.2322C19.7989 15.7634 19.163 15.5 18.5 15.5C17.837 15.5 17.2011 15.7634 16.7322 16.2322C16.2634 16.7011 16 17.337 16 18C16 18.663 16.2634 19.2989 16.7322 19.7678C17.2011 20.2366 17.837 20.5 18.5 20.5H28.5C29.163 20.5 29.7989 20.2366 30.2678 19.7678C30.7366 19.2989 31 18.663 31 18C31 17.337 30.7366 16.7011 30.2678 16.2322C29.7989 15.7634 29.163 15.5 28.5 15.5Z" stroke="#7F56D9" stroke-width="1.66667" stroke-linecap="round" stroke-linejoin="round"/>
</svg>
