<svg width="47" height="46" viewBox="0 0 47 46" fill="none" xmlns="http://www.w3.org/2000/svg">
<rect x="3.5" y="3" width="40" height="40" rx="20" fill="#F4EBFF"/>
<rect x="3.5" y="3" width="40" height="40" rx="20" stroke="#F9F5FF" stroke-width="6"/>
<path d="M31 22.5834C31.0029 23.6832 30.7459 24.7683 30.25 25.75C29.662 26.9265 28.7581 27.916 27.6395 28.6078C26.521 29.2995 25.2319 29.6662 23.9167 29.6667C22.8168 29.6696 21.7318 29.4126 20.75 28.9167L16 30.5L17.5833 25.75C17.0874 24.7683 16.8305 23.6832 16.8333 22.5834C16.8338 21.2682 17.2005 19.9791 17.8923 18.8605C18.584 17.7419 19.5735 16.838 20.75 16.25C21.7318 15.7541 22.8168 15.4972 23.9167 15.5H24.3333C26.0703 15.5959 27.7109 16.329 28.9409 17.5591C30.171 18.7892 30.9042 20.4297 31 22.1667V22.5834Z" stroke="#7F56D9" stroke-width="1.66667" stroke-linecap="round" stroke-linejoin="round"/>
</svg>
