<svg width="137" height="34" viewBox="0 0 137 34" fill="none" xmlns="http://www.w3.org/2000/svg">
<path d="M23.9445 17C21.4495 19.813 17.8238 21.5834 13.7883 21.5834C9.7528 21.5834 6.12705 19.813 3.63208 17C6.12705 14.187 9.7528 12.4167 13.7883 12.4167C17.8238 12.4167 21.4495 14.187 23.9445 17Z" fill="white"/>
<path fill-rule="evenodd" clip-rule="evenodd" d="M0.162476 26.1667C0.162476 18.5728 6.26293 12.4167 13.7882 12.4167C9.75273 12.4167 6.12701 14.187 3.63204 17C6.12701 19.813 9.75276 21.5834 13.7882 21.5834C17.8237 21.5834 21.4495 19.813 23.9444 17C26.102 19.4327 27.414 22.6451 27.414 26.1667V31.3611C27.414 32.0361 26.8717 32.5834 26.2028 32.5834H1.37365C0.704738 32.5834 0.162476 32.0361 0.162476 31.3611V26.1667ZM23.9444 17C23.9444 17 23.9444 17 23.9444 17V17Z" fill="#7CD4FD"/>
<path fill-rule="evenodd" clip-rule="evenodd" d="M8.67737 20.5834C6.73179 19.7884 5.00956 18.5531 3.63204 17C6.12701 14.187 9.75276 12.4167 13.7882 12.4167C17.8237 12.4167 21.4495 14.187 23.9444 17C23.9444 17 23.9444 17 23.9444 17C26.102 14.5674 27.414 11.355 27.414 7.83336V2.63891C27.414 1.9639 26.8717 1.41669 26.2028 1.41669L1.37365 1.41669C0.704739 1.41669 0.162476 1.9639 0.162476 2.63891L0.162476 7.83335C0.162475 13.6034 3.68445 18.5433 8.67737 20.5834Z" fill="#0BA5EC"/>
<path d="M48.6969 10.2397V24.0833H45.9453V18.1928H40.0687V24.0833H37.3171V10.2397H40.0687V15.9318H45.9453V10.2397H48.6969Z" fill="#101828"/>
<path d="M56.2401 24.2618C55.1918 24.2618 54.2484 24.0305 53.4099 23.5677C52.5713 23.0917 51.9096 22.424 51.4248 21.5645C50.9531 20.7051 50.7172 19.7134 50.7172 18.5895C50.7172 17.4656 50.9596 16.474 51.4444 15.6145C51.9424 14.7551 52.6171 14.094 53.4688 13.6312C54.3205 13.1552 55.2704 12.9172 56.3187 12.9172C57.3669 12.9172 58.3168 13.1552 59.1685 13.6312C60.0202 14.094 60.6884 14.7551 61.1732 15.6145C61.6711 16.474 61.9201 17.4656 61.9201 18.5895C61.9201 19.7134 61.6646 20.7051 61.1536 21.5645C60.6557 22.424 59.9743 23.0917 59.1096 23.5677C58.2579 24.0305 57.3014 24.2618 56.2401 24.2618ZM56.2401 21.8422C56.738 21.8422 57.2031 21.7232 57.6355 21.4852C58.081 21.234 58.4348 20.8637 58.6968 20.3745C58.9589 19.8853 59.0899 19.2903 59.0899 18.5895C59.0899 17.545 58.8147 16.745 58.2644 16.1897C57.7272 15.6211 57.0655 15.3368 56.2794 15.3368C55.4932 15.3368 54.8315 15.6211 54.2943 16.1897C53.7702 16.745 53.5081 17.545 53.5081 18.5895C53.5081 19.6341 53.7636 20.4406 54.2746 21.0092C54.7988 21.5645 55.4539 21.8422 56.2401 21.8422Z" fill="#101828"/>
<path d="M74.2176 13.0957V24.0833H71.4463V22.695C71.0926 23.171 70.6274 23.5478 70.0509 23.8255C69.4875 24.09 68.8717 24.2222 68.2034 24.2222C67.3517 24.2222 66.5983 24.0437 65.9432 23.6867C65.2881 23.3165 64.7705 22.781 64.3905 22.0802C64.0236 21.3662 63.8402 20.52 63.8402 19.5415V13.0957H66.5918V19.1448C66.5918 20.0175 66.808 20.6918 67.2404 21.1678C67.6728 21.6306 68.2624 21.862 69.0092 21.862C69.7692 21.862 70.3654 21.6306 70.7978 21.1678C71.2301 20.6918 71.4463 20.0175 71.4463 19.1448V13.0957H74.2176Z" fill="#101828"/>
<path d="M79.684 14.8013C80.0378 14.2196 80.4964 13.7634 81.0598 13.4328C81.6363 13.1023 82.2915 12.937 83.0252 12.937V15.8525H82.298C81.4332 15.8525 80.7781 16.0575 80.3326 16.4673C79.9002 16.8772 79.684 17.5912 79.684 18.6093V24.0833H76.9324V13.0957H79.684V14.8013Z" fill="#101828"/>
<path d="M89.1435 12.9172C89.9559 12.9172 90.6699 13.0825 91.2858 13.413C91.9016 13.7303 92.3864 14.1468 92.7402 14.6625V13.0957H95.5114V24.1627C95.5114 25.1808 95.3083 26.0865 94.9021 26.8798C94.4959 27.6864 93.8867 28.3211 93.0743 28.7838C92.2619 29.2598 91.2792 29.4978 90.1262 29.4978C88.5801 29.4978 87.3091 29.1342 86.3133 28.407C85.3306 27.6798 84.7737 26.6881 84.6427 25.432H87.3746C87.5187 25.9345 87.8267 26.3311 88.2984 26.622C88.7832 26.9261 89.3662 27.0782 90.0476 27.0782C90.8468 27.0782 91.4954 26.8336 91.9933 26.3443C92.4912 25.8683 92.7402 25.1411 92.7402 24.1627V22.457C92.3864 22.9727 91.8951 23.4024 91.2661 23.7462C90.6503 24.09 89.9428 24.2618 89.1435 24.2618C88.2263 24.2618 87.3877 24.0238 86.6278 23.5478C85.8678 23.0718 85.2651 22.4041 84.8196 21.5447C84.3872 20.672 84.171 19.6737 84.171 18.5498C84.171 17.4392 84.3872 16.4541 84.8196 15.5947C85.2651 14.7352 85.8612 14.0741 86.6081 13.6113C87.3681 13.1486 88.2132 12.9172 89.1435 12.9172ZM92.7402 18.5895C92.7402 17.9152 92.6092 17.34 92.3471 16.864C92.085 16.3748 91.7313 16.0046 91.2858 15.7533C90.8403 15.4889 90.362 15.3567 89.851 15.3567C89.34 15.3567 88.8683 15.4823 88.4359 15.7335C88.0035 15.9847 87.6498 16.355 87.3746 16.8442C87.1126 17.3202 86.9815 17.8887 86.9815 18.5498C86.9815 19.211 87.1126 19.7927 87.3746 20.2952C87.6498 20.7844 88.0035 21.1612 88.4359 21.4257C88.8814 21.6901 89.3531 21.8223 89.851 21.8223C90.362 21.8223 90.8403 21.6967 91.2858 21.4455C91.7313 21.1811 92.085 20.8108 92.3471 20.3348C92.6092 19.8456 92.7402 19.2638 92.7402 18.5895Z" fill="#101828"/>
<path d="M100.95 9.40668V24.0833H98.1988V9.40668H100.95Z" fill="#101828"/>
<path d="M102.961 18.5498C102.961 17.4392 103.178 16.4541 103.61 15.5947C104.055 14.7352 104.652 14.0741 105.399 13.6113C106.158 13.1486 107.004 12.9172 107.934 12.9172C108.746 12.9172 109.454 13.0825 110.057 13.413C110.672 13.7436 111.164 14.1601 111.531 14.6625V13.0957H114.302V24.0833H111.531V22.4768C111.177 22.9925 110.685 23.4222 110.057 23.766C109.441 24.0966 108.727 24.2618 107.914 24.2618C106.997 24.2618 106.158 24.0238 105.399 23.5478C104.652 23.0718 104.055 22.4041 103.61 21.5447C103.178 20.672 102.961 19.6737 102.961 18.5498ZM111.531 18.5895C111.531 17.9152 111.4 17.34 111.138 16.864C110.875 16.3748 110.522 16.0046 110.076 15.7533C109.631 15.4889 109.152 15.3567 108.641 15.3567C108.13 15.3567 107.659 15.4823 107.226 15.7335C106.794 15.9847 106.44 16.355 106.165 16.8442C105.903 17.3202 105.772 17.8887 105.772 18.5498C105.772 19.211 105.903 19.7927 106.165 20.2952C106.44 20.7844 106.794 21.1612 107.226 21.4257C107.672 21.6901 108.144 21.8223 108.641 21.8223C109.152 21.8223 109.631 21.6967 110.076 21.4455C110.522 21.1811 110.875 20.8108 111.138 20.3348C111.4 19.8456 111.531 19.2638 111.531 18.5895Z" fill="#101828"/>
<path d="M121.156 24.2618C120.265 24.2618 119.466 24.1032 118.758 23.7858C118.051 23.4553 117.487 23.0123 117.068 22.457C116.662 21.9017 116.439 21.2868 116.4 20.6125H119.171C119.223 21.0356 119.426 21.386 119.78 21.6637C120.147 21.9413 120.599 22.0802 121.136 22.0802C121.66 22.0802 122.067 21.9744 122.355 21.7628C122.656 21.5513 122.807 21.2802 122.807 20.9497C122.807 20.5927 122.623 20.3282 122.257 20.1563C121.903 19.9712 121.333 19.7729 120.547 19.5613C119.734 19.363 119.066 19.1581 118.542 18.9465C118.031 18.735 117.585 18.411 117.205 17.9747C116.839 17.5383 116.655 16.95 116.655 16.2095C116.655 15.6013 116.825 15.046 117.166 14.5435C117.52 14.0411 118.018 13.6444 118.66 13.3535C119.315 13.0626 120.081 12.9172 120.959 12.9172C122.257 12.9172 123.292 13.2477 124.065 13.9088C124.838 14.5567 125.264 15.436 125.342 16.5467H122.709C122.669 16.1103 122.486 15.7666 122.158 15.5153C121.844 15.2509 121.418 15.1187 120.881 15.1187C120.383 15.1187 119.996 15.2112 119.721 15.3963C119.459 15.5815 119.328 15.8393 119.328 16.1698C119.328 16.5401 119.511 16.8243 119.878 17.0227C120.245 17.2078 120.815 17.3995 121.588 17.5978C122.374 17.7962 123.023 18.0011 123.534 18.2127C124.045 18.4242 124.484 18.7548 124.851 19.2043C125.231 19.6407 125.427 20.2225 125.44 20.9497C125.44 21.5843 125.264 22.1529 124.91 22.6553C124.569 23.1578 124.071 23.5545 123.416 23.8453C122.774 24.123 122.021 24.2618 121.156 24.2618Z" fill="#101828"/>
<path d="M131.866 24.2618C130.975 24.2618 130.176 24.1032 129.468 23.7858C128.76 23.4553 128.197 23.0123 127.778 22.457C127.372 21.9017 127.149 21.2868 127.11 20.6125H129.881C129.933 21.0356 130.136 21.386 130.49 21.6637C130.857 21.9413 131.309 22.0802 131.846 22.0802C132.37 22.0802 132.776 21.9744 133.065 21.7628C133.366 21.5513 133.517 21.2802 133.517 20.9497C133.517 20.5927 133.333 20.3282 132.966 20.1563C132.613 19.9712 132.043 19.7729 131.257 19.5613C130.444 19.363 129.776 19.1581 129.252 18.9465C128.741 18.735 128.295 18.411 127.915 17.9747C127.548 17.5383 127.365 16.95 127.365 16.2095C127.365 15.6013 127.535 15.046 127.876 14.5435C128.23 14.0411 128.728 13.6444 129.37 13.3535C130.025 13.0626 130.791 12.9172 131.669 12.9172C132.966 12.9172 134.002 13.2477 134.775 13.9088C135.548 14.5567 135.974 15.436 136.052 16.5467H133.418C133.379 16.1103 133.196 15.7666 132.868 15.5153C132.554 15.2509 132.128 15.1187 131.591 15.1187C131.093 15.1187 130.706 15.2112 130.431 15.3963C130.169 15.5815 130.038 15.8393 130.038 16.1698C130.038 16.5401 130.221 16.8243 130.588 17.0227C130.955 17.2078 131.525 17.3995 132.298 17.5978C133.084 17.7962 133.733 18.0011 134.244 18.2127C134.755 18.4242 135.194 18.7548 135.561 19.2043C135.941 19.6407 136.137 20.2225 136.15 20.9497C136.15 21.5843 135.974 22.1529 135.62 22.6553C135.279 23.1578 134.781 23.5545 134.126 23.8453C133.484 24.123 132.731 24.2618 131.866 24.2618Z" fill="#101828"/>
</svg>
