<svg width="307" height="30" viewBox="0 0 307 30" fill="none" xmlns="http://www.w3.org/2000/svg">
<g style="mix-blend-mode:multiply">
<rect width="307" height="30" rx="15" fill="#F9F5FF"/>
<rect x="4.5" y="4.5" width="86" height="21" rx="10.5" fill="white"/>
<rect x="4.5" y="4.5" width="86" height="21" rx="10.5" stroke="#E9D7FE"/>
<path d="M20.4345 10.2727V19H19.2243L14.7882 12.5994H14.7072V19H13.3904V10.2727H14.6092L19.0495 16.6818H19.1305V10.2727H20.4345ZM25.074 19.1321C24.4292 19.1321 23.8738 18.9943 23.4078 18.7188C22.9448 18.4403 22.5868 18.0497 22.334 17.5469C22.084 17.0412 21.959 16.4489 21.959 15.7699C21.959 15.0994 22.084 14.5085 22.334 13.9972C22.5868 13.4858 22.9391 13.0866 23.3908 12.7997C23.8453 12.5128 24.3766 12.3693 24.9846 12.3693C25.3539 12.3693 25.7118 12.4304 26.0584 12.5526C26.405 12.6747 26.7161 12.8665 26.9917 13.1278C27.2672 13.3892 27.4846 13.7287 27.6436 14.1463C27.8027 14.5611 27.8823 15.0653 27.8823 15.6591V16.1108H22.6792V15.1562H26.6337C26.6337 14.821 26.5655 14.5241 26.4292 14.2656C26.2928 14.0043 26.101 13.7983 25.8539 13.6477C25.6096 13.4972 25.3226 13.4219 24.9931 13.4219C24.6351 13.4219 24.3226 13.5099 24.0556 13.6861C23.7914 13.8594 23.5868 14.0866 23.4419 14.3679C23.2999 14.6463 23.2289 14.9489 23.2289 15.2756V16.0213C23.2289 16.4588 23.3056 16.831 23.459 17.1378C23.6152 17.4446 23.8326 17.679 24.111 17.8409C24.3894 18 24.7147 18.0795 25.0868 18.0795C25.3283 18.0795 25.5485 18.0455 25.7473 17.9773C25.9462 17.9062 26.1181 17.8011 26.263 17.6619C26.4078 17.5227 26.5186 17.3509 26.5953 17.1463L27.8013 17.3636C27.7047 17.7187 27.5314 18.0298 27.2814 18.2969C27.0343 18.5611 26.7232 18.767 26.3482 18.9148C25.976 19.0597 25.5513 19.1321 25.074 19.1321ZM30.7033 19L28.7772 12.4545H30.0939L31.3766 17.2614H31.4405L32.7275 12.4545H34.0442L35.3226 17.2401H35.3865L36.6607 12.4545H37.9775L36.0556 19H34.7559L33.4263 14.2741H33.3283L31.9988 19H30.7033ZM45.4775 12.4545V13.4773H41.7786V12.4545H45.4775ZM42.7928 19V11.696C42.7928 11.2869 42.8823 10.9474 43.0613 10.6776C43.2402 10.4048 43.4775 10.2017 43.7729 10.0682C44.0684 9.93182 44.3894 9.86364 44.736 9.86364C44.9917 9.86364 45.2104 9.88494 45.3922 9.92756C45.574 9.96733 45.709 10.0043 45.7971 10.0384L45.4988 11.0696C45.4391 11.0526 45.3624 11.0327 45.2686 11.0099C45.1749 10.9844 45.0613 10.9716 44.9277 10.9716C44.6181 10.9716 44.3965 11.0483 44.263 11.2017C44.1323 11.3551 44.0669 11.5767 44.0669 11.8665V19H42.7928ZM49.3553 19.1321C48.7104 19.1321 48.155 18.9943 47.6891 18.7188C47.226 18.4403 46.8681 18.0497 46.6152 17.5469C46.3652 17.0412 46.2402 16.4489 46.2402 15.7699C46.2402 15.0994 46.3652 14.5085 46.6152 13.9972C46.8681 13.4858 47.2203 13.0866 47.6721 12.7997C48.1266 12.5128 48.6578 12.3693 49.2658 12.3693C49.6351 12.3693 49.9931 12.4304 50.3397 12.5526C50.6863 12.6747 50.9973 12.8665 51.2729 13.1278C51.5485 13.3892 51.7658 13.7287 51.9249 14.1463C52.084 14.5611 52.1635 15.0653 52.1635 15.6591V16.1108H46.9604V15.1562H50.915C50.915 14.821 50.8468 14.5241 50.7104 14.2656C50.574 14.0043 50.3823 13.7983 50.1351 13.6477C49.8908 13.4972 49.6039 13.4219 49.2743 13.4219C48.9164 13.4219 48.6039 13.5099 48.3368 13.6861C48.0726 13.8594 47.8681 14.0866 47.7232 14.3679C47.5811 14.6463 47.5101 14.9489 47.5101 15.2756V16.0213C47.5101 16.4588 47.5868 16.831 47.7402 17.1378C47.8965 17.4446 48.1138 17.679 48.3922 17.8409C48.6706 18 48.9959 18.0795 49.3681 18.0795C49.6096 18.0795 49.8297 18.0455 50.0286 17.9773C50.2275 17.9062 50.3993 17.8011 50.5442 17.6619C50.6891 17.5227 50.7999 17.3509 50.8766 17.1463L52.0826 17.3636C51.986 17.7187 51.8127 18.0298 51.5627 18.2969C51.3155 18.5611 51.0044 18.767 50.6294 18.9148C50.2573 19.0597 49.8326 19.1321 49.3553 19.1321ZM55.4821 19.1449C55.0673 19.1449 54.6923 19.0682 54.3571 18.9148C54.0218 18.7585 53.7562 18.5327 53.5602 18.2372C53.367 17.9418 53.2704 17.5795 53.2704 17.1506C53.2704 16.7812 53.3414 16.4773 53.4835 16.2386C53.6255 16 53.8173 15.8111 54.0588 15.6719C54.3002 15.5327 54.5701 15.4276 54.8684 15.3565C55.1667 15.2855 55.4707 15.2315 55.7804 15.1946C56.1724 15.1491 56.4906 15.1122 56.7349 15.0838C56.9792 15.0526 57.1568 15.0028 57.2676 14.9347C57.3784 14.8665 57.4338 14.7557 57.4338 14.6023V14.5724C57.4338 14.2003 57.3287 13.9119 57.1184 13.7074C56.911 13.5028 56.6014 13.4006 56.1895 13.4006C55.7605 13.4006 55.4224 13.4957 55.1752 13.6861C54.9309 13.8736 54.7619 14.0824 54.6681 14.3125L53.4707 14.0398C53.6127 13.642 53.8201 13.321 54.0929 13.0767C54.3684 12.8295 54.6852 12.6506 55.0431 12.5398C55.4011 12.4261 55.7775 12.3693 56.1724 12.3693C56.4338 12.3693 56.7108 12.4006 57.0034 12.4631C57.2988 12.5227 57.5744 12.6335 57.8301 12.7955C58.0886 12.9574 58.3002 13.1889 58.465 13.4901C58.6298 13.7884 58.7122 14.1761 58.7122 14.6534V19H57.4679V18.1051H57.4167C57.3343 18.2699 57.2108 18.4318 57.046 18.5909C56.8812 18.75 56.6696 18.8821 56.411 18.9872C56.1525 19.0923 55.8429 19.1449 55.4821 19.1449ZM55.7591 18.1222C56.1113 18.1222 56.4125 18.0526 56.6625 17.9134C56.9153 17.7741 57.1071 17.5923 57.2377 17.3679C57.3713 17.1406 57.438 16.8977 57.438 16.6392V15.7955C57.3926 15.8409 57.3045 15.8835 57.1738 15.9233C57.046 15.9602 56.8997 15.9929 56.7349 16.0213C56.5701 16.0469 56.4096 16.071 56.2534 16.0938C56.0971 16.1136 55.9664 16.1307 55.8613 16.1449C55.6142 16.1761 55.3883 16.2287 55.1838 16.3026C54.9821 16.3764 54.8201 16.483 54.698 16.6222C54.5787 16.7585 54.519 16.9403 54.519 17.1676C54.519 17.483 54.6355 17.7216 54.8684 17.8835C55.1014 18.0426 55.3983 18.1222 55.7591 18.1222ZM63.4647 12.4545V13.4773H59.8894V12.4545H63.4647ZM60.8482 10.8864H62.1223V17.0781C62.1223 17.3253 62.1593 17.5114 62.2331 17.6364C62.307 17.7585 62.4022 17.8423 62.5186 17.8878C62.638 17.9304 62.7672 17.9517 62.9064 17.9517C63.0087 17.9517 63.0982 17.9446 63.1749 17.9304C63.2516 17.9162 63.3113 17.9048 63.3539 17.8963L63.584 18.9489C63.5101 18.9773 63.405 19.0057 63.2686 19.0341C63.1323 19.0653 62.9618 19.0824 62.7573 19.0852C62.4221 19.0909 62.1096 19.0312 61.8198 18.9062C61.53 18.7812 61.2956 18.5881 61.1167 18.3267C60.9377 18.0653 60.8482 17.7372 60.8482 17.3423V10.8864ZM69.0204 16.2855V12.4545H70.2988V19H69.046V17.8665H68.9778C68.8272 18.2159 68.5858 18.5071 68.2534 18.7401C67.9238 18.9702 67.5133 19.0852 67.0218 19.0852C66.6014 19.0852 66.2292 18.9929 65.9054 18.8082C65.5843 18.6207 65.3315 18.3438 65.1468 17.9773C64.965 17.6108 64.8741 17.1577 64.8741 16.6179V12.4545H66.1483V16.4645C66.1483 16.9105 66.2718 17.2656 66.519 17.5298C66.7662 17.794 67.0872 17.9261 67.4821 17.9261C67.7207 17.9261 67.9579 17.8665 68.1937 17.7472C68.4324 17.6278 68.6298 17.4474 68.786 17.206C68.9451 16.9645 69.0233 16.6577 69.0204 16.2855ZM72.0108 19V12.4545H73.2424V13.4943H73.3105C73.4299 13.142 73.6401 12.8651 73.9412 12.6634C74.2452 12.4588 74.589 12.3565 74.9725 12.3565C75.052 12.3565 75.1458 12.3594 75.2537 12.3651C75.3645 12.3707 75.4512 12.3778 75.5137 12.3864V13.6051C75.4625 13.5909 75.3716 13.5753 75.2409 13.5582C75.1103 13.5384 74.9796 13.5284 74.8489 13.5284C74.5478 13.5284 74.2793 13.5923 74.0435 13.7202C73.8105 13.8452 73.6259 14.0199 73.4895 14.2443C73.3532 14.4659 73.285 14.7187 73.285 15.0028V19H72.0108ZM79.2029 19.1321C78.5581 19.1321 78.0027 18.9943 77.5368 18.7188C77.0737 18.4403 76.7157 18.0497 76.4629 17.5469C76.2129 17.0412 76.0879 16.4489 76.0879 15.7699C76.0879 15.0994 76.2129 14.5085 76.4629 13.9972C76.7157 13.4858 77.068 13.0866 77.5197 12.7997C77.9743 12.5128 78.5055 12.3693 79.1135 12.3693C79.4828 12.3693 79.8407 12.4304 80.1873 12.5526C80.5339 12.6747 80.845 12.8665 81.1206 13.1278C81.3961 13.3892 81.6135 13.7287 81.7726 14.1463C81.9316 14.5611 82.0112 15.0653 82.0112 15.6591V16.1108H76.8081V15.1562H80.7626C80.7626 14.821 80.6944 14.5241 80.5581 14.2656C80.4217 14.0043 80.2299 13.7983 79.9828 13.6477C79.7385 13.4972 79.4515 13.4219 79.122 13.4219C78.764 13.4219 78.4515 13.5099 78.1845 13.6861C77.9203 13.8594 77.7157 14.0866 77.5708 14.3679C77.4288 14.6463 77.3578 14.9489 77.3578 15.2756V16.0213C77.3578 16.4588 77.4345 16.831 77.5879 17.1378C77.7441 17.4446 77.9615 17.679 78.2399 17.8409C78.5183 18 78.8436 18.0795 79.2157 18.0795C79.4572 18.0795 79.6774 18.0455 79.8762 17.9773C80.0751 17.9062 80.247 17.8011 80.3919 17.6619C80.5368 17.5227 80.6475 17.3509 80.7243 17.1463L81.9302 17.3636C81.8336 17.7187 81.6603 18.0298 81.4103 18.2969C81.1632 18.5611 80.8521 18.767 80.4771 18.9148C80.1049 19.0597 79.6802 19.1321 79.2029 19.1321Z" fill="#6941C6"/>
<path d="M107.207 13.1108H105.878C105.827 12.8267 105.732 12.5767 105.592 12.3608C105.453 12.1449 105.283 11.9616 105.081 11.8111C104.879 11.6605 104.653 11.5469 104.403 11.4702C104.156 11.3935 103.893 11.3551 103.615 11.3551C103.112 11.3551 102.662 11.4815 102.264 11.7344C101.869 11.9872 101.557 12.358 101.327 12.8466C101.099 13.3352 100.986 13.9318 100.986 14.6364C100.986 15.3466 101.099 15.946 101.327 16.4347C101.557 16.9233 101.871 17.2926 102.268 17.5426C102.666 17.7926 103.114 17.9176 103.611 17.9176C103.886 17.9176 104.148 17.8807 104.395 17.8068C104.645 17.7301 104.871 17.6179 105.072 17.4702C105.274 17.3224 105.445 17.142 105.584 16.929C105.726 16.7131 105.824 16.4659 105.878 16.1875L107.207 16.1918C107.136 16.6207 106.999 17.0156 106.794 17.3764C106.592 17.7344 106.332 18.044 106.014 18.3054C105.699 18.5639 105.338 18.7642 104.932 18.9062C104.526 19.0483 104.082 19.1193 103.602 19.1193C102.847 19.1193 102.173 18.9403 101.582 18.5824C100.991 18.2216 100.526 17.706 100.185 17.0355C99.8466 16.3651 99.6776 15.5653 99.6776 14.6364C99.6776 13.7045 99.848 12.9048 100.189 12.2372C100.53 11.5668 100.996 11.0526 101.587 10.6946C102.178 10.3338 102.849 10.1534 103.602 10.1534C104.065 10.1534 104.497 10.2202 104.898 10.3537C105.301 10.4844 105.663 10.6776 105.984 10.9332C106.305 11.1861 106.571 11.4957 106.781 11.8622C106.991 12.2259 107.134 12.642 107.207 13.1108ZM109.955 15.1136V19H108.681V10.2727H109.938V13.5199H110.019C110.172 13.1676 110.407 12.8878 110.722 12.6804C111.037 12.473 111.449 12.3693 111.958 12.3693C112.407 12.3693 112.799 12.4616 113.134 12.6463C113.472 12.831 113.733 13.1065 113.918 13.473C114.105 13.8366 114.199 14.2912 114.199 14.8366V19H112.925V14.9901C112.925 14.5099 112.801 14.1378 112.554 13.8736C112.307 13.6065 111.963 13.473 111.523 13.473C111.222 13.473 110.952 13.5369 110.713 13.6648C110.478 13.7926 110.292 13.9801 110.155 14.2273C110.022 14.4716 109.955 14.767 109.955 15.1136ZM118.721 19.1321C118.076 19.1321 117.52 18.9943 117.054 18.7188C116.591 18.4403 116.233 18.0497 115.98 17.5469C115.73 17.0412 115.605 16.4489 115.605 15.7699C115.605 15.0994 115.73 14.5085 115.98 13.9972C116.233 13.4858 116.586 13.0866 117.037 12.7997C117.492 12.5128 118.023 12.3693 118.631 12.3693C119 12.3693 119.358 12.4304 119.705 12.5526C120.051 12.6747 120.363 12.8665 120.638 13.1278C120.914 13.3892 121.131 13.7287 121.29 14.1463C121.449 14.5611 121.529 15.0653 121.529 15.6591V16.1108H116.326V15.1562H120.28C120.28 14.821 120.212 14.5241 120.076 14.2656C119.939 14.0043 119.748 13.7983 119.5 13.6477C119.256 13.4972 118.969 13.4219 118.64 13.4219C118.282 13.4219 117.969 13.5099 117.702 13.6861C117.438 13.8594 117.233 14.0866 117.088 14.3679C116.946 14.6463 116.875 14.9489 116.875 15.2756V16.0213C116.875 16.4588 116.952 16.831 117.105 17.1378C117.262 17.4446 117.479 17.679 117.757 17.8409C118.036 18 118.361 18.0795 118.733 18.0795C118.975 18.0795 119.195 18.0455 119.394 17.9773C119.593 17.9062 119.765 17.8011 119.909 17.6619C120.054 17.5227 120.165 17.3509 120.242 17.1463L121.448 17.3636C121.351 17.7187 121.178 18.0298 120.928 18.2969C120.681 18.5611 120.37 18.767 119.995 18.9148C119.623 19.0597 119.198 19.1321 118.721 19.1321ZM125.7 19.1321C125.066 19.1321 124.521 18.9886 124.063 18.7017C123.609 18.4119 123.259 18.0128 123.015 17.5043C122.771 16.9957 122.648 16.4134 122.648 15.7571C122.648 15.0923 122.773 14.5057 123.023 13.9972C123.273 13.4858 123.626 13.0866 124.08 12.7997C124.535 12.5128 125.07 12.3693 125.687 12.3693C126.184 12.3693 126.627 12.4616 127.016 12.6463C127.406 12.8281 127.719 13.0838 127.958 13.4134C128.2 13.7429 128.343 14.1278 128.388 14.5682H127.148C127.08 14.2614 126.924 13.9972 126.68 13.7756C126.438 13.554 126.114 13.4432 125.708 13.4432C125.353 13.4432 125.042 13.5369 124.775 13.7244C124.511 13.9091 124.305 14.1733 124.157 14.517C124.009 14.858 123.935 15.2614 123.935 15.7273C123.935 16.2045 124.008 16.6165 124.153 16.9631C124.298 17.3097 124.502 17.5781 124.766 17.7685C125.033 17.9588 125.347 18.054 125.708 18.054C125.95 18.054 126.168 18.0099 126.364 17.9219C126.563 17.831 126.729 17.7017 126.863 17.5341C126.999 17.3665 127.094 17.1648 127.148 16.929H128.388C128.343 17.3523 128.205 17.7301 127.975 18.0625C127.745 18.3949 127.437 18.6562 127.05 18.8466C126.667 19.0369 126.217 19.1321 125.7 19.1321ZM130.923 16.7798L130.914 15.2244H131.136L133.744 12.4545H135.27L132.295 15.608H132.095L130.923 16.7798ZM129.751 19V10.2727H131.025V19H129.751ZM133.885 19L131.541 15.8892L132.419 14.9986L135.449 19H133.885ZM142.364 19.1321C141.75 19.1321 141.214 18.9915 140.757 18.7102C140.3 18.429 139.945 18.0355 139.692 17.5298C139.439 17.0241 139.312 16.4332 139.312 15.7571C139.312 15.0781 139.439 14.4844 139.692 13.9759C139.945 13.4673 140.3 13.0724 140.757 12.7912C141.214 12.5099 141.75 12.3693 142.364 12.3693C142.977 12.3693 143.513 12.5099 143.97 12.7912C144.428 13.0724 144.783 13.4673 145.036 13.9759C145.288 14.4844 145.415 15.0781 145.415 15.7571C145.415 16.4332 145.288 17.0241 145.036 17.5298C144.783 18.0355 144.428 18.429 143.97 18.7102C143.513 18.9915 142.977 19.1321 142.364 19.1321ZM142.368 18.0625C142.766 18.0625 143.095 17.9574 143.357 17.7472C143.618 17.5369 143.811 17.2571 143.936 16.9077C144.064 16.5582 144.128 16.1733 144.128 15.7528C144.128 15.3352 144.064 14.9517 143.936 14.6023C143.811 14.25 143.618 13.9673 143.357 13.7543C143.095 13.5412 142.766 13.4347 142.368 13.4347C141.967 13.4347 141.635 13.5412 141.371 13.7543C141.109 13.9673 140.915 14.25 140.787 14.6023C140.662 14.9517 140.599 15.3352 140.599 15.7528C140.599 16.1733 140.662 16.5582 140.787 16.9077C140.915 17.2571 141.109 17.5369 141.371 17.7472C141.635 17.9574 141.967 18.0625 142.368 18.0625ZM150.983 16.2855V12.4545H152.262V19H151.009V17.8665H150.941C150.79 18.2159 150.549 18.5071 150.216 18.7401C149.887 18.9702 149.476 19.0852 148.985 19.0852C148.564 19.0852 148.192 18.9929 147.868 18.8082C147.547 18.6207 147.294 18.3438 147.11 17.9773C146.928 17.6108 146.837 17.1577 146.837 16.6179V12.4545H148.111V16.4645C148.111 16.9105 148.235 17.2656 148.482 17.5298C148.729 17.794 149.05 17.9261 149.445 17.9261C149.684 17.9261 149.921 17.8665 150.157 17.7472C150.395 17.6278 150.593 17.4474 150.749 17.206C150.908 16.9645 150.986 16.6577 150.983 16.2855ZM157.029 12.4545V13.4773H153.454V12.4545H157.029ZM154.413 10.8864H155.687V17.0781C155.687 17.3253 155.724 17.5114 155.798 17.6364C155.871 17.7585 155.967 17.8423 156.083 17.8878C156.202 17.9304 156.332 17.9517 156.471 17.9517C156.573 17.9517 156.663 17.9446 156.739 17.9304C156.816 17.9162 156.876 17.9048 156.918 17.8963L157.148 18.9489C157.075 18.9773 156.969 19.0057 156.833 19.0341C156.697 19.0653 156.526 19.0824 156.322 19.0852C155.987 19.0909 155.674 19.0312 155.384 18.9062C155.094 18.7812 154.86 18.5881 154.681 18.3267C154.502 18.0653 154.413 17.7372 154.413 17.3423V10.8864ZM164.67 12.4545V13.4773H161.094V12.4545H164.67ZM162.053 10.8864H163.327V17.0781C163.327 17.3253 163.364 17.5114 163.438 17.6364C163.512 17.7585 163.607 17.8423 163.724 17.8878C163.843 17.9304 163.972 17.9517 164.112 17.9517C164.214 17.9517 164.303 17.9446 164.38 17.9304C164.457 17.9162 164.516 17.9048 164.559 17.8963L164.789 18.9489C164.715 18.9773 164.61 19.0057 164.474 19.0341C164.337 19.0653 164.167 19.0824 163.962 19.0852C163.627 19.0909 163.315 19.0312 163.025 18.9062C162.735 18.7812 162.501 18.5881 162.322 18.3267C162.143 18.0653 162.053 17.7372 162.053 17.3423V10.8864ZM167.494 15.1136V19H166.22V10.2727H167.477V13.5199H167.558C167.711 13.1676 167.946 12.8878 168.261 12.6804C168.576 12.473 168.988 12.3693 169.497 12.3693C169.946 12.3693 170.338 12.4616 170.673 12.6463C171.011 12.831 171.272 13.1065 171.457 13.473C171.645 13.8366 171.738 14.2912 171.738 14.8366V19H170.464V14.9901C170.464 14.5099 170.341 14.1378 170.093 13.8736C169.846 13.6065 169.502 13.473 169.062 13.473C168.761 13.473 168.491 13.5369 168.252 13.6648C168.017 13.7926 167.831 13.9801 167.694 14.2273C167.561 14.4716 167.494 14.767 167.494 15.1136ZM176.26 19.1321C175.615 19.1321 175.059 18.9943 174.593 18.7188C174.13 18.4403 173.772 18.0497 173.52 17.5469C173.27 17.0412 173.145 16.4489 173.145 15.7699C173.145 15.0994 173.27 14.5085 173.52 13.9972C173.772 13.4858 174.125 13.0866 174.576 12.7997C175.031 12.5128 175.562 12.3693 176.17 12.3693C176.539 12.3693 176.897 12.4304 177.244 12.5526C177.591 12.6747 177.902 12.8665 178.177 13.1278C178.453 13.3892 178.67 13.7287 178.829 14.1463C178.988 14.5611 179.068 15.0653 179.068 15.6591V16.1108H173.865V15.1562H177.819C177.819 14.821 177.751 14.5241 177.615 14.2656C177.478 14.0043 177.287 13.7983 177.039 13.6477C176.795 13.4972 176.508 13.4219 176.179 13.4219C175.821 13.4219 175.508 13.5099 175.241 13.6861C174.977 13.8594 174.772 14.0866 174.627 14.3679C174.485 14.6463 174.414 14.9489 174.414 15.2756V16.0213C174.414 16.4588 174.491 16.831 174.645 17.1378C174.801 17.4446 175.018 17.679 175.297 17.8409C175.575 18 175.9 18.0795 176.272 18.0795C176.514 18.0795 176.734 18.0455 176.933 17.9773C177.132 17.9062 177.304 17.8011 177.449 17.6619C177.593 17.5227 177.704 17.3509 177.781 17.1463L178.987 17.3636C178.89 17.7187 178.717 18.0298 178.467 18.2969C178.22 18.5611 177.909 18.767 177.534 18.9148C177.162 19.0597 176.737 19.1321 176.26 19.1321ZM186.713 12.4545V13.4773H183.137V12.4545H186.713ZM184.096 10.8864H185.37V17.0781C185.37 17.3253 185.407 17.5114 185.481 17.6364C185.555 17.7585 185.65 17.8423 185.767 17.8878C185.886 17.9304 186.015 17.9517 186.154 17.9517C186.257 17.9517 186.346 17.9446 186.423 17.9304C186.5 17.9162 186.559 17.9048 186.602 17.8963L186.832 18.9489C186.758 18.9773 186.653 19.0057 186.517 19.0341C186.38 19.0653 186.21 19.0824 186.005 19.0852C185.67 19.0909 185.358 19.0312 185.068 18.9062C184.778 18.7812 184.544 18.5881 184.365 18.3267C184.186 18.0653 184.096 17.7372 184.096 17.3423V10.8864ZM190.873 19.1321C190.228 19.1321 189.673 18.9943 189.207 18.7188C188.744 18.4403 188.386 18.0497 188.133 17.5469C187.883 17.0412 187.758 16.4489 187.758 15.7699C187.758 15.0994 187.883 14.5085 188.133 13.9972C188.386 13.4858 188.738 13.0866 189.19 12.7997C189.644 12.5128 190.175 12.3693 190.783 12.3693C191.153 12.3693 191.511 12.4304 191.857 12.5526C192.204 12.6747 192.515 12.8665 192.79 13.1278C193.066 13.3892 193.283 13.7287 193.442 14.1463C193.602 14.5611 193.681 15.0653 193.681 15.6591V16.1108H188.478V15.1562H192.433C192.433 14.821 192.364 14.5241 192.228 14.2656C192.092 14.0043 191.9 13.7983 191.653 13.6477C191.408 13.4972 191.121 13.4219 190.792 13.4219C190.434 13.4219 190.121 13.5099 189.854 13.6861C189.59 13.8594 189.386 14.0866 189.241 14.3679C189.099 14.6463 189.028 14.9489 189.028 15.2756V16.0213C189.028 16.4588 189.104 16.831 189.258 17.1378C189.414 17.4446 189.631 17.679 189.91 17.8409C190.188 18 190.513 18.0795 190.886 18.0795C191.127 18.0795 191.347 18.0455 191.546 17.9773C191.745 17.9062 191.917 17.8011 192.062 17.6619C192.207 17.5227 192.317 17.3509 192.394 17.1463L193.6 17.3636C193.504 17.7187 193.33 18.0298 193.08 18.2969C192.833 18.5611 192.522 18.767 192.147 18.9148C191.775 19.0597 191.35 19.1321 190.873 19.1321ZM197 19.1449C196.585 19.1449 196.21 19.0682 195.875 18.9148C195.539 18.7585 195.274 18.5327 195.078 18.2372C194.885 17.9418 194.788 17.5795 194.788 17.1506C194.788 16.7812 194.859 16.4773 195.001 16.2386C195.143 16 195.335 15.8111 195.576 15.6719C195.818 15.5327 196.088 15.4276 196.386 15.3565C196.684 15.2855 196.988 15.2315 197.298 15.1946C197.69 15.1491 198.008 15.1122 198.252 15.0838C198.497 15.0526 198.674 15.0028 198.785 14.9347C198.896 14.8665 198.951 14.7557 198.951 14.6023V14.5724C198.951 14.2003 198.846 13.9119 198.636 13.7074C198.429 13.5028 198.119 13.4006 197.707 13.4006C197.278 13.4006 196.94 13.4957 196.693 13.6861C196.449 13.8736 196.279 14.0824 196.186 14.3125L194.988 14.0398C195.13 13.642 195.338 13.321 195.61 13.0767C195.886 12.8295 196.203 12.6506 196.561 12.5398C196.919 12.4261 197.295 12.3693 197.69 12.3693C197.951 12.3693 198.228 12.4006 198.521 12.4631C198.816 12.5227 199.092 12.6335 199.348 12.7955C199.606 12.9574 199.818 13.1889 199.983 13.4901C200.147 13.7884 200.23 14.1761 200.23 14.6534V19H198.985V18.1051H198.934C198.852 18.2699 198.728 18.4318 198.564 18.5909C198.399 18.75 198.187 18.8821 197.929 18.9872C197.67 19.0923 197.36 19.1449 197 19.1449ZM197.277 18.1222C197.629 18.1222 197.93 18.0526 198.18 17.9134C198.433 17.7741 198.625 17.5923 198.755 17.3679C198.889 17.1406 198.956 16.8977 198.956 16.6392V15.7955C198.91 15.8409 198.822 15.8835 198.691 15.9233C198.564 15.9602 198.417 15.9929 198.252 16.0213C198.088 16.0469 197.927 16.071 197.771 16.0938C197.615 16.1136 197.484 16.1307 197.379 16.1449C197.132 16.1761 196.906 16.2287 196.701 16.3026C196.5 16.3764 196.338 16.483 196.216 16.6222C196.096 16.7585 196.037 16.9403 196.037 17.1676C196.037 17.483 196.153 17.7216 196.386 17.8835C196.619 18.0426 196.916 18.1222 197.277 18.1222ZM201.927 19V12.4545H203.15V13.5199H203.231C203.367 13.1591 203.59 12.8778 203.9 12.6761C204.21 12.4716 204.58 12.3693 205.012 12.3693C205.45 12.3693 205.816 12.4716 206.112 12.6761C206.41 12.8807 206.63 13.1619 206.772 13.5199H206.84C206.996 13.1705 207.245 12.892 207.586 12.6847C207.927 12.4744 208.333 12.3693 208.805 12.3693C209.398 12.3693 209.883 12.5554 210.258 12.9276C210.636 13.2997 210.825 13.8608 210.825 14.6108V19H209.55V14.7301C209.55 14.2869 209.43 13.9659 209.188 13.767C208.947 13.5682 208.658 13.4688 208.323 13.4688C207.908 13.4688 207.586 13.5966 207.356 13.8523C207.126 14.1051 207.011 14.4304 207.011 14.8281V19H205.741V14.6491C205.741 14.294 205.63 14.0085 205.408 13.7926C205.187 13.5767 204.898 13.4688 204.543 13.4688C204.302 13.4688 204.079 13.5327 203.874 13.6605C203.673 13.7855 203.509 13.9602 203.384 14.1847C203.262 14.4091 203.201 14.669 203.201 14.9645V19H201.927ZM218.158 19.1278C217.63 19.1278 217.158 18.9929 216.744 18.723C216.332 18.4503 216.008 18.0625 215.772 17.5597C215.539 17.054 215.423 16.4474 215.423 15.7401C215.423 15.0327 215.54 14.4276 215.776 13.9247C216.015 13.4219 216.342 13.0369 216.756 12.7699C217.171 12.5028 217.641 12.3693 218.167 12.3693C218.573 12.3693 218.9 12.4375 219.147 12.5739C219.397 12.7074 219.59 12.8636 219.727 13.0426C219.866 13.2216 219.974 13.3793 220.05 13.5156H220.127V10.2727H221.401V19H220.157V17.9815H220.05C219.974 18.1207 219.863 18.2798 219.718 18.4588C219.576 18.6378 219.38 18.794 219.13 18.9276C218.88 19.0611 218.556 19.1278 218.158 19.1278ZM218.44 18.0412C218.806 18.0412 219.116 17.9446 219.369 17.7514C219.624 17.5554 219.817 17.2841 219.948 16.9375C220.082 16.5909 220.148 16.1875 220.148 15.7273C220.148 15.2727 220.083 14.875 219.952 14.5341C219.822 14.1932 219.63 13.9276 219.377 13.7372C219.124 13.5469 218.812 13.4517 218.44 13.4517C218.056 13.4517 217.737 13.5511 217.481 13.75C217.225 13.9489 217.032 14.2202 216.901 14.5639C216.773 14.9077 216.71 15.2955 216.71 15.7273C216.71 16.1648 216.775 16.5582 216.906 16.9077C217.036 17.2571 217.229 17.5341 217.485 17.7386C217.744 17.9403 218.062 18.0412 218.44 18.0412ZM225.125 19.1449C224.71 19.1449 224.335 19.0682 224 18.9148C223.664 18.7585 223.399 18.5327 223.203 18.2372C223.01 17.9418 222.913 17.5795 222.913 17.1506C222.913 16.7812 222.984 16.4773 223.126 16.2386C223.268 16 223.46 15.8111 223.701 15.6719C223.943 15.5327 224.213 15.4276 224.511 15.3565C224.809 15.2855 225.113 15.2315 225.423 15.1946C225.815 15.1491 226.133 15.1122 226.377 15.0838C226.622 15.0526 226.799 15.0028 226.91 14.9347C227.021 14.8665 227.076 14.7557 227.076 14.6023V14.5724C227.076 14.2003 226.971 13.9119 226.761 13.7074C226.554 13.5028 226.244 13.4006 225.832 13.4006C225.403 13.4006 225.065 13.4957 224.818 13.6861C224.574 13.8736 224.404 14.0824 224.311 14.3125L223.113 14.0398C223.255 13.642 223.463 13.321 223.735 13.0767C224.011 12.8295 224.328 12.6506 224.686 12.5398C225.044 12.4261 225.42 12.3693 225.815 12.3693C226.076 12.3693 226.353 12.4006 226.646 12.4631C226.941 12.5227 227.217 12.6335 227.473 12.7955C227.731 12.9574 227.943 13.1889 228.108 13.4901C228.272 13.7884 228.355 14.1761 228.355 14.6534V19H227.11V18.1051H227.059C226.977 18.2699 226.853 18.4318 226.689 18.5909C226.524 18.75 226.312 18.8821 226.054 18.9872C225.795 19.0923 225.485 19.1449 225.125 19.1449ZM225.402 18.1222C225.754 18.1222 226.055 18.0526 226.305 17.9134C226.558 17.7741 226.75 17.5923 226.88 17.3679C227.014 17.1406 227.081 16.8977 227.081 16.6392V15.7955C227.035 15.8409 226.947 15.8835 226.816 15.9233C226.689 15.9602 226.542 15.9929 226.377 16.0213C226.213 16.0469 226.052 16.071 225.896 16.0938C225.74 16.1136 225.609 16.1307 225.504 16.1449C225.257 16.1761 225.031 16.2287 224.826 16.3026C224.625 16.3764 224.463 16.483 224.341 16.6222C224.221 16.7585 224.162 16.9403 224.162 17.1676C224.162 17.483 224.278 17.7216 224.511 17.8835C224.744 18.0426 225.041 18.1222 225.402 18.1222ZM234.957 14.0526L233.802 14.2571C233.754 14.1094 233.677 13.9687 233.572 13.8352C233.469 13.7017 233.33 13.5923 233.154 13.5071C232.978 13.4219 232.758 13.3793 232.494 13.3793C232.133 13.3793 231.832 13.4602 231.59 13.6222C231.349 13.7812 231.228 13.9872 231.228 14.2401C231.228 14.4588 231.309 14.6349 231.471 14.7685C231.633 14.902 231.894 15.0114 232.255 15.0966L233.295 15.3352C233.897 15.4744 234.346 15.6889 234.641 15.9787C234.937 16.2685 235.085 16.6449 235.085 17.108C235.085 17.5 234.971 17.8494 234.744 18.1562C234.519 18.4602 234.205 18.6989 233.802 18.8722C233.401 19.0455 232.937 19.1321 232.408 19.1321C231.675 19.1321 231.077 18.9759 230.614 18.6634C230.151 18.348 229.867 17.9006 229.762 17.321L230.994 17.1335C231.07 17.4545 231.228 17.6974 231.467 17.8622C231.705 18.0241 232.016 18.1051 232.4 18.1051C232.817 18.1051 233.151 18.0185 233.401 17.8452C233.651 17.669 233.776 17.4545 233.776 17.2017C233.776 16.9972 233.7 16.8253 233.546 16.6861C233.396 16.5469 233.164 16.4418 232.852 16.3707L231.744 16.1278C231.133 15.9886 230.681 15.767 230.388 15.4631C230.099 15.1591 229.954 14.7741 229.954 14.3082C229.954 13.9219 230.062 13.5838 230.278 13.294C230.494 13.0043 230.792 12.7784 231.173 12.6165C231.553 12.4517 231.989 12.3693 232.481 12.3693C233.188 12.3693 233.745 12.5227 234.151 12.8295C234.558 13.1335 234.826 13.5412 234.957 14.0526ZM237.76 15.1136V19H236.485V10.2727H237.743V13.5199H237.824C237.977 13.1676 238.211 12.8878 238.527 12.6804C238.842 12.473 239.254 12.3693 239.762 12.3693C240.211 12.3693 240.603 12.4616 240.939 12.6463C241.277 12.831 241.538 13.1065 241.723 13.473C241.91 13.8366 242.004 14.2912 242.004 14.8366V19H240.73V14.9901C240.73 14.5099 240.606 14.1378 240.359 13.8736C240.112 13.6065 239.768 13.473 239.328 13.473C239.027 13.473 238.757 13.5369 238.518 13.6648C238.282 13.7926 238.096 13.9801 237.96 14.2273C237.826 14.4716 237.76 14.767 237.76 15.1136ZM243.806 19V10.2727H245.081V13.5156H245.157C245.231 13.3793 245.338 13.2216 245.477 13.0426C245.616 12.8636 245.809 12.7074 246.056 12.5739C246.304 12.4375 246.63 12.3693 247.037 12.3693C247.565 12.3693 248.037 12.5028 248.451 12.7699C248.866 13.0369 249.191 13.4219 249.427 13.9247C249.666 14.4276 249.785 15.0327 249.785 15.7401C249.785 16.4474 249.667 17.054 249.431 17.5597C249.196 18.0625 248.872 18.4503 248.46 18.723C248.048 18.9929 247.578 19.1278 247.049 19.1278C246.652 19.1278 246.326 19.0611 246.074 18.9276C245.824 18.794 245.627 18.6378 245.485 18.4588C245.343 18.2798 245.234 18.1207 245.157 17.9815H245.051V19H243.806ZM245.055 15.7273C245.055 16.1875 245.122 16.5909 245.255 16.9375C245.389 17.2841 245.582 17.5554 245.835 17.7514C246.088 17.9446 246.397 18.0412 246.764 18.0412C247.145 18.0412 247.463 17.9403 247.718 17.7386C247.974 17.5341 248.167 17.2571 248.298 16.9077C248.431 16.5582 248.498 16.1648 248.498 15.7273C248.498 15.2955 248.433 14.9077 248.302 14.5639C248.174 14.2202 247.981 13.9489 247.723 13.75C247.467 13.5511 247.147 13.4517 246.764 13.4517C246.395 13.4517 246.082 13.5469 245.826 13.7372C245.574 13.9276 245.382 14.1932 245.251 14.5341C245.12 14.875 245.055 15.2727 245.055 15.7273ZM253.973 19.1321C253.359 19.1321 252.824 18.9915 252.366 18.7102C251.909 18.429 251.554 18.0355 251.301 17.5298C251.048 17.0241 250.922 16.4332 250.922 15.7571C250.922 15.0781 251.048 14.4844 251.301 13.9759C251.554 13.4673 251.909 13.0724 252.366 12.7912C252.824 12.5099 253.359 12.3693 253.973 12.3693C254.587 12.3693 255.122 12.5099 255.58 12.7912C256.037 13.0724 256.392 13.4673 256.645 13.9759C256.898 14.4844 257.024 15.0781 257.024 15.7571C257.024 16.4332 256.898 17.0241 256.645 17.5298C256.392 18.0355 256.037 18.429 255.58 18.7102C255.122 18.9915 254.587 19.1321 253.973 19.1321ZM253.977 18.0625C254.375 18.0625 254.705 17.9574 254.966 17.7472C255.227 17.5369 255.42 17.2571 255.545 16.9077C255.673 16.5582 255.737 16.1733 255.737 15.7528C255.737 15.3352 255.673 14.9517 255.545 14.6023C255.42 14.25 255.227 13.9673 254.966 13.7543C254.705 13.5412 254.375 13.4347 253.977 13.4347C253.577 13.4347 253.244 13.5412 252.98 13.7543C252.719 13.9673 252.524 14.25 252.396 14.6023C252.271 14.9517 252.209 15.3352 252.209 15.7528C252.209 16.1733 252.271 16.5582 252.396 16.9077C252.524 17.2571 252.719 17.5369 252.98 17.7472C253.244 17.9574 253.577 18.0625 253.977 18.0625ZM260.351 19.1449C259.936 19.1449 259.561 19.0682 259.226 18.9148C258.891 18.7585 258.625 18.5327 258.429 18.2372C258.236 17.9418 258.14 17.5795 258.14 17.1506C258.14 16.7812 258.211 16.4773 258.353 16.2386C258.495 16 258.686 15.8111 258.928 15.6719C259.169 15.5327 259.439 15.4276 259.738 15.3565C260.036 15.2855 260.34 15.2315 260.65 15.1946C261.042 15.1491 261.36 15.1122 261.604 15.0838C261.848 15.0526 262.026 15.0028 262.137 14.9347C262.248 14.8665 262.303 14.7557 262.303 14.6023V14.5724C262.303 14.2003 262.198 13.9119 261.988 13.7074C261.78 13.5028 261.471 13.4006 261.059 13.4006C260.63 13.4006 260.292 13.4957 260.044 13.6861C259.8 13.8736 259.631 14.0824 259.537 14.3125L258.34 14.0398C258.482 13.642 258.689 13.321 258.962 13.0767C259.238 12.8295 259.554 12.6506 259.912 12.5398C260.27 12.4261 260.647 12.3693 261.042 12.3693C261.303 12.3693 261.58 12.4006 261.873 12.4631C262.168 12.5227 262.444 12.6335 262.699 12.7955C262.958 12.9574 263.169 13.1889 263.334 13.4901C263.499 13.7884 263.581 14.1761 263.581 14.6534V19H262.337V18.1051H262.286C262.203 18.2699 262.08 18.4318 261.915 18.5909C261.75 18.75 261.539 18.8821 261.28 18.9872C261.022 19.0923 260.712 19.1449 260.351 19.1449ZM260.628 18.1222C260.98 18.1222 261.282 18.0526 261.532 17.9134C261.784 17.7741 261.976 17.5923 262.107 17.3679C262.24 17.1406 262.307 16.8977 262.307 16.6392V15.7955C262.262 15.8409 262.174 15.8835 262.043 15.9233C261.915 15.9602 261.769 15.9929 261.604 16.0213C261.439 16.0469 261.279 16.071 261.123 16.0938C260.966 16.1136 260.836 16.1307 260.73 16.1449C260.483 16.1761 260.257 16.2287 260.053 16.3026C259.851 16.3764 259.689 16.483 259.567 16.6222C259.448 16.7585 259.388 16.9403 259.388 17.1676C259.388 17.483 259.505 17.7216 259.738 17.8835C259.971 18.0426 260.267 18.1222 260.628 18.1222ZM265.278 19V12.4545H266.51V13.4943H266.578C266.697 13.142 266.908 12.8651 267.209 12.6634C267.513 12.4588 267.857 12.3565 268.24 12.3565C268.32 12.3565 268.413 12.3594 268.521 12.3651C268.632 12.3707 268.719 12.3778 268.781 12.3864V13.6051C268.73 13.5909 268.639 13.5753 268.509 13.5582C268.378 13.5384 268.247 13.5284 268.116 13.5284C267.815 13.5284 267.547 13.5923 267.311 13.7202C267.078 13.8452 266.893 14.0199 266.757 14.2443C266.621 14.4659 266.553 14.7187 266.553 15.0028V19H265.278ZM272.1 19.1278C271.571 19.1278 271.1 18.9929 270.685 18.723C270.273 18.4503 269.949 18.0625 269.713 17.5597C269.48 17.054 269.364 16.4474 269.364 15.7401C269.364 15.0327 269.482 14.4276 269.718 13.9247C269.956 13.4219 270.283 13.0369 270.698 12.7699C271.113 12.5028 271.583 12.3693 272.108 12.3693C272.515 12.3693 272.841 12.4375 273.088 12.5739C273.338 12.7074 273.532 12.8636 273.668 13.0426C273.807 13.2216 273.915 13.3793 273.992 13.5156H274.069V10.2727H275.343V19H274.098V17.9815H273.992C273.915 18.1207 273.804 18.2798 273.659 18.4588C273.517 18.6378 273.321 18.794 273.071 18.9276C272.821 19.0611 272.498 19.1278 272.1 19.1278ZM272.381 18.0412C272.748 18.0412 273.057 17.9446 273.31 17.7514C273.566 17.5554 273.759 17.2841 273.89 16.9375C274.023 16.5909 274.09 16.1875 274.09 15.7273C274.09 15.2727 274.025 14.875 273.894 14.5341C273.763 14.1932 273.571 13.9276 273.319 13.7372C273.066 13.5469 272.753 13.4517 272.381 13.4517C271.998 13.4517 271.678 13.5511 271.422 13.75C271.167 13.9489 270.973 14.2202 270.843 14.5639C270.715 14.9077 270.651 15.2955 270.651 15.7273C270.651 16.1648 270.716 16.5582 270.847 16.9077C270.978 17.2571 271.171 17.5341 271.426 17.7386C271.685 17.9403 272.003 18.0412 272.381 18.0412Z" fill="#6941C6"/>
<path d="M284.333 15H293.667M293.667 15L289 10.3333M293.667 15L289 19.6666" stroke="#9E77ED" stroke-width="1.3333" stroke-linecap="round" stroke-linejoin="round"/>
</g>
</svg>
